# xmcd
#
# Track frame offsets:
#	150
#	12375
#	25310
#	37510
#	48875
#	65525
#	75382
#	91955
#	104912
#	117197
#	131550
#	144445
#	156177
#	166842
#
# Disc length: 2386 seconds
#
# Revision: 1
# Processed by: cddbd v1.4b42PL1 Copyright (c) Steve Scherf et al.
# Submitted via: audiograbber 1.80
#
DISCID=aa09500e
DTITLE=Merle Haggard  - Hits
DYEAR=1900
DGENRE=
TTITLE0=I Take a Lot of Pride in What I Am
TTITLE1=The Fightin' Side of Me
TTITLE2=Okie From Muskigee
TTITLE3=(From Now On My Friends Are Gonna Be) Stangers
TTITLE4=I Think I'll Just Stay Here And Drink
TTITLE5=Mama Tried
TTITLE6=Daddy Frank (The Guitar Man)
TTITLE7=Sing Me Back Home
TTITLE8=The Bottle Let Me Down
TTITLE9=Branded Man
TTITLE10=Swinging Doors
TTITLE11=Carolyn
TTITLE12=Someday We'll Look Back
TTITLE13=Workin' Man Blues
EXTD=
EXTT0=
EXTT1=
EXTT2=
EXTT3=
EXTT4=
EXTT5=
EXTT6=
EXTT7=
EXTT8=
EXTT9=
EXTT10=
EXTT11=
EXTT12=
EXTT13=
PLAYORDER=
